<svg width="374" height="369" viewBox="0 0 374 369" fill="none" xmlns="http://www.w3.org/2000/svg">
<path d="M124.667 292.125V76.875L296.083 184.5L124.667 292.125ZM155.833 236.006L237.646 184.5L155.833 132.994V236.006Z" fill="url(#paint0_linear_7_3)" fill-opacity="0.51"/>
<path d="M65.28 236C64.2133 236 63.68 235.467 63.68 234.4V164.96C63.68 163.979 64.0427 163.125 64.768 162.4L75.392 151.712C76.1173 151.029 76.9707 150.688 77.952 150.688H92.608C93.5893 150.688 94.4427 151.029 95.168 151.712L105.92 162.528H108.928L119.68 151.712C120.405 151.029 121.259 150.688 122.24 150.688H136.832C137.856 150.688 138.709 151.029 139.392 151.712L150.08 162.4C150.805 163.125 151.168 163.979 151.168 164.96V234.4C151.168 235.467 150.635 236 149.568 236H131.392C130.325 236 129.792 235.467 129.792 234.4V167.712H118.08V234.4C118.08 235.467 117.547 236 116.48 236H98.368C97.3013 236 96.768 235.467 96.768 234.4V167.712H84.992V234.4C84.992 235.467 84.4587 236 83.392 236H65.28ZM167.707 236C166.64 236 166.107 235.467 166.107 234.4V152.288C166.107 151.221 166.64 150.688 167.707 150.688H206.747C207.771 150.688 208.624 151.029 209.307 151.712L222.107 164.512C222.832 165.237 223.195 166.091 223.195 167.072V219.552C223.195 220.576 222.832 221.429 222.107 222.112L209.307 234.912C208.624 235.637 207.771 236 206.747 236H167.707ZM187.483 218.912H199.195C200.987 218.912 201.883 217.717 201.883 215.328V171.36C201.883 168.928 200.987 167.712 199.195 167.712H187.483V218.912ZM239.975 236C238.908 236 238.375 235.467 238.375 234.4V152.288C238.375 151.221 238.908 150.688 239.975 150.688H278.503C279.484 150.688 280.338 151.029 281.063 151.712L293.863 164.512C294.546 165.237 294.887 166.091 294.887 167.072V180.512C294.887 180.939 294.802 181.28 294.631 181.536C294.46 181.792 294.204 182.091 293.863 182.432L283.815 191.392L282.855 193.76L283.815 195.488L293.863 204.448C294.204 204.789 294.46 205.088 294.631 205.344C294.802 205.557 294.887 205.899 294.887 206.368V219.552C294.887 220.576 294.546 221.429 293.863 222.112L281.063 234.912C280.338 235.637 279.484 236 278.503 236H239.975ZM265.447 221.6C268.988 221.6 271.399 220.896 272.679 219.488C274.002 218.08 274.663 215.413 274.663 211.488C274.663 207.52 274.002 204.832 272.679 203.424C271.399 202.016 268.988 201.312 265.447 201.312C261.948 201.312 259.538 202.016 258.215 203.424C256.935 204.832 256.295 207.52 256.295 211.488C256.295 215.413 256.935 218.08 258.215 219.488C259.538 220.896 261.948 221.6 265.447 221.6ZM265.447 185.312C268.988 185.312 271.399 184.608 272.679 183.2C274.002 181.792 274.663 179.125 274.663 175.2C274.663 171.275 274.002 168.608 272.679 167.2C271.399 165.792 268.988 165.088 265.447 165.088C261.948 165.088 259.538 165.792 258.215 167.2C256.935 168.608 256.295 171.275 256.295 175.2C256.295 179.125 256.935 181.792 258.215 183.2C259.538 184.608 261.948 185.312 265.447 185.312Z" fill="white"/>
<defs>
<linearGradient id="paint0_linear_7_3" x1="210.375" y1="76.875" x2="218.511" y2="221.556" gradientUnits="userSpaceOnUse">
<stop offset="0.192308" stop-color="#CFABD4" stop-opacity="0.7"/>
<stop offset="0.774038" stop-color="#CFABD4" stop-opacity="0.7"/>
<stop offset="1" stop-color="#AB68B5"/>
</linearGradient>
</defs>
</svg>
